<?xml version="1.0" standalone="no"?>
<!DOCTYPE svg PUBLIC "-//W3C//DTD SVG 20010904//EN"
 "http://www.w3.org/TR/2001/REC-SVG-20010904/DTD/svg10.dtd">
<svg version="1.0" xmlns="http://www.w3.org/2000/svg"
 width="499.000000pt" height="500.000000pt" viewBox="0 0 499.000000 500.000000"
 preserveAspectRatio="xMidYMid meet">
<metadata>
Created by potrace 1.16, written by Peter Selinger 2001-2019
</metadata>
<g transform="translate(0.000000,500.000000) scale(0.100000,-0.100000)"
fill="#000000" stroke="none">
<path d="M2399 4787 c-52 -35 -95 -99 -125 -189 -24 -69 -29 -100 -29 -183 0
-88 -3 -105 -24 -138 -21 -34 -23 -46 -17 -103 8 -75 -6 -97 -70 -108 -54 -11
-181 -64 -230 -97 -29 -20 -57 -54 -90 -111 -26 -46 -69 -112 -95 -148 -26
-36 -62 -96 -82 -135 -48 -96 -91 -142 -179 -194 -45 -26 -84 -58 -99 -80 -41
-61 -99 -119 -168 -169 l-66 -47 -135 0 c-132 0 -135 0 -138 -22 -2 -16 4 -26
22 -35 37 -16 32 -33 -16 -66 -24 -16 -55 -42 -70 -57 -48 -48 -30 -88 29 -67
22 7 42 4 91 -15 82 -30 112 -23 217 58 84 64 178 115 233 125 45 9 82 -10
126 -62 36 -42 39 -44 92 -44 69 0 96 12 217 94 54 36 102 66 107 66 6 0 10
28 10 62 0 74 7 69 50 -32 38 -90 36 -108 -21 -191 -56 -83 -96 -173 -131
-299 -53 -192 -109 -360 -154 -468 -25 -59 -61 -147 -81 -197 -19 -49 -56
-119 -82 -155 l-46 -65 -7 -150 c-8 -185 -29 -274 -82 -344 -14 -19 -26 -45
-26 -58 0 -50 122 -154 266 -226 123 -62 201 -128 242 -204 37 -70 40 -113 13
-173 -33 -74 -22 -84 127 -121 104 -25 146 -21 302 27 110 34 262 35 425 5
147 -28 178 -27 194 2 9 17 11 107 6 372 -12 730 -12 755 10 800 16 33 26 41
53 43 56 6 62 27 69 233 6 178 -9 580 -27 745 -5 44 -21 114 -36 155 -14 41
-29 86 -31 102 -5 24 -2 27 22 27 39 0 59 -14 116 -83 72 -87 80 -91 130 -75
41 12 76 40 132 106 18 21 36 32 53 32 42 0 173 -76 269 -155 76 -63 98 -76
155 -90 73 -18 142 -9 153 20 4 10 16 12 40 8 21 -3 37 -1 41 6 15 23 -7 51
-79 101 -41 28 -75 55 -75 60 0 4 11 11 25 14 18 5 25 13 25 31 0 36 -34 46
-144 44 -105 -2 -129 7 -215 79 -57 48 -128 149 -157 221 -11 29 -33 54 -68
80 -91 68 -126 139 -166 337 -23 118 -50 173 -109 227 -51 46 -109 79 -206
117 -113 44 -125 54 -125 96 0 19 -9 52 -20 74 -17 33 -20 59 -20 159 0 210
-47 378 -119 427 -50 34 -152 35 -202 1z"/>
</g>
</svg>
